<?xml version="1.0" encoding="UTF-8"?>
<svg width="18px" height="18px" viewBox="0 0 18 18" version="1.1" xmlns="http://www.w3.org/2000/svg" xmlns:xlink="http://www.w3.org/1999/xlink">
    <!-- Generator: Sketch 43.2 (39069) - http://www.bohemiancoding.com/sketch -->
    <title>miningicon</title>
    <desc>Created with Sketch.</desc>
    <defs>
        <polygon id="path-1" points="17.6637273 8.97193064 17.6637273 0.104878613 0.20433898 0.104878613 0.20433898 8.97193064 17.6637273 8.97193064"></polygon>
        <polygon id="path-3" points="3.30226364 3.69942197 0.164536364 3.69942197 0.164536364 0.152369942 3.30226364 0.152369942"></polygon>
        <polygon id="path-5" points="3.38575909 3.69942197 0.248031818 3.69942197 0.248031818 0.152369942 3.38575909 0.152369942 3.38575909 3.69942197"></polygon>
    </defs>
    <g id="design" stroke="none" stroke-width="1" fill="none" fill-rule="evenodd">
        <g id="03_Countryprofile_02" transform="translate(-1062.000000, -263.000000)">
            <g id="Group-58" transform="translate(-103.000000, 0.000000)">
                <g id="Group-57" transform="translate(1025.000000, 247.000000)">
                    <g id="Group-60">
                        <g id="miningicon" transform="translate(140.000000, 16.000000)">
                            <g id="Group-3" transform="translate(0.000000, 5.386358)">
                                <mask id="mask-2" fill="white">
                                    <use xlink:href="#path-1"></use>
                                </mask>
                                <g id="Clip-2"></g>
                                <path d="M14.4312136,8.97193064 L3.43730455,8.97193064 L0.216531818,0.343953757 C0.173986364,0.23065896 0.248031818,0.104878613 0.357259091,0.104878613 L17.5112591,0.104878613 C17.6204864,0.104878613 17.6941227,0.23065896 17.6515773,0.343953757 L14.4312136,8.97193064 Z" id="Fill-1" fill="#000000" mask="url(#mask-2)"></path>
                            </g>
                            <path d="M0.315591746,4.75127202 C0.206983186,4.39603285 0.147886166,4.01375515 0.147886166,3.6155204 C0.147886166,1.73374551 1.46742633,0.20826555 3.09516161,0.20826555 C4.20511713,0.20826555 5.171765,0.917598441 5.6744305,1.96554199 C6.02650731,1.58028647 6.50181783,1.34401717 7.02486221,1.34401717 C7.54790659,1.34401717 8.02321712,1.58028647 8.37529392,1.96554199 C8.87795942,0.917598441 9.8446073,0.20826555 10.9545628,0.20826555 C12.2395436,0.20826555 13.332458,1.15894088 13.7357545,2.48508764 C13.7907273,2.48155738 13.8461021,2.47976879 13.9018383,2.47976879 C15.1851005,2.47976879 16.2768097,3.4279029 16.6814081,4.75127202 L0.315591746,4.75127202 Z" id="Combined-Shape" fill="#000000"></path>
                            <g id="Group-6" transform="translate(3.272727, 14.172486)">
                                <mask id="mask-4" fill="white">
                                    <use xlink:href="#path-3"></use>
                                </mask>
                                <g id="Clip-5"></g>
                                <path d="M3.30226364,1.92578035 C3.30226364,0.946358382 2.59985455,0.152369942 1.7334,0.152369942 C0.866945455,0.152369942 0.164536364,0.946358382 0.164536364,1.92578035 C0.164536364,2.90520231 0.866945455,3.69965318 1.7334,3.69965318 C2.59985455,3.69965318 3.30226364,2.90520231 3.30226364,1.92578035" id="Fill-4" fill="#000000" mask="url(#mask-4)"></path>
                            </g>
                            <g id="Group-15" transform="translate(11.045455, 14.172486)">
                                <mask id="mask-6" fill="white">
                                    <use xlink:href="#path-5"></use>
                                </mask>
                                <g id="Clip-14"></g>
                                <path d="M3.38575909,1.92578035 C3.38575909,0.946358382 2.68335,0.152369942 1.81689545,0.152369942 C0.950440909,0.152369942 0.248031818,0.946358382 0.248031818,1.92578035 C0.248031818,2.90520231 0.950440909,3.69965318 1.81689545,3.69965318 C2.68335,3.69965318 3.38575909,2.90520231 3.38575909,1.92578035" id="Fill-13" fill="#000000" mask="url(#mask-6)"></path>
                            </g>
                        </g>
                    </g>
                </g>
            </g>
        </g>
    </g>
</svg>
