<?xml version="1.0" encoding="UTF-8"?>
<svg width="10px" height="16px" viewBox="0 0 10 16" version="1.1" xmlns="http://www.w3.org/2000/svg" xmlns:xlink="http://www.w3.org/1999/xlink">
    <!-- Generator: Sketch 43.2 (39069) - http://www.bohemiancoding.com/sketch -->
    <title>Oil&amp;gasicon</title>
    <desc>Created with Sketch.</desc>
    <defs></defs>
    <g id="design" stroke="none" stroke-width="1" fill="none" fill-rule="evenodd">
        <g id="03_Countryprofile_02" transform="translate(-946.000000, -264.000000)" fill="#000000">
            <g id="Group-58" transform="translate(-103.000000, 0.000000)">
                <g id="Group-57" transform="translate(1025.000000, 247.000000)">
                    <g id="Group-60">
                        <path d="M28.8889655,31.9847826 C27.4293103,31.9847826 26.2396552,30.8181739 26.1858621,29.3590435 C26.1844828,29.3249565 26.1837931,29.2908696 26.1837931,29.2564348 C26.1837931,28.8505217 26.2741379,28.4672174 26.4317241,28.1207826 C26.4324138,28.1190435 26.4496552,28.0828696 26.4496552,28.0828696 C26.477931,28.0233913 26.5072414,27.9646087 26.5393103,27.9075652 L28.8193103,23.451913 C28.8458621,23.400087 28.9193103,23.400087 28.9455172,23.451913 L31.2027586,27.8484348 C31.4496552,28.259913 31.5941379,28.7406087 31.5941379,29.2564348 C31.5941379,29.2908696 31.5934483,29.3249565 31.592069,29.3593913 C31.5386207,30.8185217 30.3489655,31.9847826 28.8889655,31.9847826 Z M28.9913793,17.2581739 C28.9434483,17.1646087 28.8113793,17.1646087 28.7634483,17.2581739 L24.6424138,25.3117391 C24.5841379,25.4146957 24.5310345,25.5207826 24.4803448,25.627913 L24.4475862,25.6971304 C24.1631034,26.3228696 24,27.0157391 24,27.7489565 C24,27.8112174 24.0010345,27.8731304 24.0034483,27.9346957 C24.1,30.5722609 26.2506897,32.6804348 28.8889655,32.6804348 C31.5275862,32.6804348 33.6775862,30.5722609 33.7744828,27.9350435 C33.7768966,27.8734783 33.777931,27.8112174 33.777931,27.7489565 C33.777931,26.8164348 33.5165517,25.947913 33.0710345,25.2046087 L28.9913793,17.2581739 Z" id="Oil&amp;gasicon"></path>
                    </g>
                </g>
            </g>
        </g>
    </g>
</svg>
